<svg xmlns="http://www.w3.org/2000/svg" viewBox="0 0 100 100">
<rect width="100" height="100" rx="22" fill="#0f1115"></rect>
<g fill="#56c4b5" transform="translate(50 50) scale(0.86) translate(-50 -50)"><g><g><path d="M24.7,80.6h-8.9c-1.5,0-2.7-1.2-2.7-2.7V36.5c0-0.6,0.2-1.2,0.5-1.6l10.8-14.3c0.5-0.7,1.3-1.1,2.2-1.1h8.2    c1.5,0,2.7,1.2,2.7,2.7c0,1.5-1.2,2.7-2.7,2.7H28l-9.5,12.6v37.8h6.2c1.5,0,2.7,1.2,2.7,2.7S26.2,80.6,24.7,80.6z"></path></g><g><path d="M38.3,80.6h-8.9c-1.5,0-2.7-1.2-2.7-2.7V36.5c0-0.6,0.2-1.2,0.5-1.6l10.8-14.3c0.5-0.7,1.3-1.1,2.2-1.1h8.2    c1.5,0,2.7,1.2,2.7,2.7c0,1.5-1.2,2.7-2.7,2.7h-6.9l-9.5,12.6v37.8h6.2c1.5,0,2.7,1.2,2.7,2.7S39.8,80.6,38.3,80.6z"></path></g><g><path d="M81.4,80.6H45.7c-3,0-5.5-2.5-5.5-5.5V37.4c0-1.2,0.4-2.4,1.1-3.3l9.4-12.5c1-1.4,2.7-2.2,4.4-2.2h26.2    c3,0,5.5,2.5,5.5,5.5v50.1C86.9,78.1,84.5,80.6,81.4,80.6z M55.2,24.8l-9.5,12.5l0,37.7l35.8,0.1c0.1,0,0.1,0,0.1-0.1V24.9    L55.2,24.8z"></path></g><g><path d="M75.6,71.1c-1.5,0-2.7-1.2-2.7-2.7V49.7c0-1.5,1.2-2.7,2.7-2.7s2.7,1.2,2.7,2.7v18.7C78.3,69.9,77.1,71.1,75.6,71.1z"></path></g><g><path d="M75.7,61.8h-9.9c-1.5,0-2.7-1.2-2.7-2.7c0-1.5,1.2-2.7,2.7-2.7h9.9c1.5,0,2.7,1.2,2.7,2.7C78.4,60.6,77.2,61.8,75.7,61.8z    "></path></g><g><path d="M75.7,52.4h-9.9c-1.5,0-2.7-1.2-2.7-2.7c0-1.5,1.2-2.7,2.7-2.7h9.9c1.5,0,2.7,1.2,2.7,2.7C78.4,51.2,77.2,52.4,75.7,52.4z    "></path></g><g><path d="M75.7,71.1h-9.9c-1.5,0-2.7-1.2-2.7-2.7s1.2-2.7,2.7-2.7h9.9c1.5,0,2.7,1.2,2.7,2.7S77.2,71.1,75.7,71.1z"></path></g></g></g>
</svg>